<svg xmlns="http://www.w3.org/2000/svg" xmlns:xlink="http://www.w3.org/1999/xlink" version="1.1" x="0px" y="0px" viewBox="0 0 48 60" enable-background="new 0 0 48 48" xml:space="preserve"><rect x="26.341" y="6.228" transform="matrix(-0.8155 -0.5788 0.5788 -0.8155 43.7252 47.2049)" width="6.093" height="20.809"/><polygon points="19.618,30.396 20.406,24.854 24.591,27.825 "/><path d="M40.007,6.932l-1.246,1.754L33.793,5.16l1.244-1.753c0.972-1.37,2.878-1.693,4.247-0.722  C40.655,3.657,40.978,5.562,40.007,6.932z"/><path d="M40.491,12.55c-0.71,0.428-0.939,1.35-0.512,2.059c2.43,4.039,3.238,8.803,2.279,13.418  c-2.098,10.066-11.99,16.549-22.061,14.455C10.13,40.387,3.645,30.489,5.741,20.423C7.838,10.354,17.727,3.868,27.802,5.966  c0.811,0.168,1.605-0.352,1.773-1.162c0.169-0.811-0.352-1.605-1.163-1.775C16.729,0.598,5.238,8.124,2.805,19.811  C0.371,31.497,7.9,42.985,19.587,45.418c1.482,0.309,2.961,0.457,4.42,0.457c10.035,0,19.063-7.033,21.188-17.238  c1.114-5.356,0.176-10.889-2.646-15.576C42.123,12.352,41.202,12.124,40.491,12.55z"/><text x="0" y="63" fill="#000000" font-size="5px" font-weight="bold" font-family="'Helvetica Neue', Helvetica, Arial-Unicode, Arial, Sans-serif">Created by Kieu Thi Kim Cuong</text><text x="0" y="68" fill="#000000" font-size="5px" font-weight="bold" font-family="'Helvetica Neue', Helvetica, Arial-Unicode, Arial, Sans-serif">from the Noun Project</text></svg>